M48
;GenerationSoftware,Autodesk,EAGLE,9.2.2*%
;CreationDate,2019-01-03T17:13:47Z*%
FMAT,2
ICI,OFF
METRIC,TZ,000.000
T4C0.813
T3C1.016
T2C1.321
T1C3.100
%
G90
M71
T1
X15850Y66950
X89150Y66950
X89150Y10050
X15850Y10050
T2
X89005Y23130
X84103Y18228
X89030Y15383
X94720Y15383
X99647Y18228
X102492Y23155
X102492Y28845
X99647Y33772
X94720Y36617
X89030Y36617
X84103Y33772
X81258Y28845
X81258Y23155
X62755Y23130
X57853Y18228
X62780Y15383
X68470Y15383
X73397Y18228
X76242Y23155
X76242Y28845
X73397Y33772
X68470Y36617
X62780Y36617
X57853Y33772
X55008Y28845
X55008Y23155
X36505Y23130
X31603Y18228
X36530Y15383
X42220Y15383
X47147Y18228
X49992Y23155
X49992Y28845
X47147Y33772
X42220Y36617
X36530Y36617
X31603Y33772
X28758Y28845
X28758Y23155
X10255Y23130
X5353Y18228
X10280Y15383
X15970Y15383
X20897Y18228
X23742Y23155
X23742Y28845
X20897Y33772
X15970Y36617
X10280Y36617
X5353Y33772
X2508Y28845
X2508Y23155
X23380Y48130
X18478Y43228
X23405Y40383
X29095Y40383
X34022Y43228
X36867Y48155
X36867Y53845
X34022Y58772
X29095Y61617
X23405Y61617
X18478Y58772
X15633Y53845
X15633Y48155
X49630Y48130
X44728Y43228
X49655Y40383
X55345Y40383
X60272Y43228
X63117Y48155
X63117Y53845
X60272Y58772
X55345Y61617
X49655Y61617
X44728Y58772
X41883Y53845
X41883Y48155
X75880Y48130
X70978Y43228
X75905Y40383
X81595Y40383
X86522Y43228
X89367Y48155
X89367Y53845
X86522Y58772
X81595Y61617
X75905Y61617
X70978Y58772
X68133Y53845
X68133Y48155
T3
X97833Y51500
X100627Y51500
T4
X85149Y20650
X83879Y22850
X83375Y24730
X83375Y27270
X83879Y29150
X85149Y31350
X86525Y32726
X88725Y33996
X90605Y34500
X93145Y34500
X95025Y33996
X97225Y32726
X98601Y31350
X99871Y29150
X100375Y27270
X100375Y24730
X99871Y22850
X98601Y20650
X62475Y18004
X60275Y19274
X58899Y20650
X88725Y18004
X57125Y24730
X57125Y27270
X57629Y29150
X58899Y31350
X60275Y32726
X62475Y33996
X64355Y34500
X66895Y34500
X68775Y33996
X70975Y32726
X72351Y31350
X73621Y29150
X74125Y27270
X74125Y24730
X73621Y22850
X72351Y20650
X36225Y18004
X34025Y19274
X32649Y20650
X31379Y22850
X30875Y24730
X30875Y27270
X31379Y29150
X32649Y31350
X34025Y32726
X36225Y33996
X38105Y34500
X40645Y34500
X42525Y33996
X44725Y32726
X46101Y31350
X47371Y29150
X47875Y27270
X47875Y24730
X47371Y22850
X46101Y20650
X9975Y18004
X7775Y19274
X6399Y20650
X5129Y22850
X4625Y24730
X4625Y27270
X5129Y29150
X6399Y31350
X7775Y32726
X9975Y33996
X11855Y34500
X14395Y34500
X16275Y33996
X18475Y32726
X19851Y31350
X21121Y29150
X21625Y27270
X21625Y24730
X21121Y22850
X19851Y20650
X75600Y43004
X73400Y44274
X72024Y45650
X70754Y47850
X70250Y49730
X70250Y52270
X70754Y54150
X72024Y56350
X73400Y57726
X75600Y58996
X77480Y59500
X80020Y59500
X81900Y58996
X84100Y57726
X85476Y56350
X86746Y54150
X87250Y52270
X87250Y49730
X86746Y47850
X85476Y45650
X49350Y43004
X47150Y44274
X45774Y45650
X44504Y47850
X44000Y49730
X44000Y52270
X44504Y54150
X45774Y56350
X47150Y57726
X49350Y58996
X51230Y59500
X53770Y59500
X55650Y58996
X57850Y57726
X59226Y56350
X60496Y54150
X61000Y52270
X61000Y49730
X60496Y47850
X59226Y45650
X23100Y43004
X20900Y44274
X19524Y45650
X18254Y47850
X17750Y49730
X17750Y52270
X18254Y54150
X19524Y56350
X20900Y57726
X23100Y58996
X24980Y59500
X27520Y59500
X29400Y58996
X31600Y57726
X32976Y56350
X34246Y54150
X34750Y52270
X34750Y49730
X34246Y47850
X32976Y45650
X86525Y19274
X57629Y22850
M30