G04 EAGLE Gerber RS-274X export*
G75*
%MOMM*%
%FSLAX34Y34*%
%LPD*%
%IN*%
%IPPOS*%
%AMOC8*
5,1,8,0,0,1.08239X$1,22.5*%
G01*
%ADD10C,0.254000*%


D10*
X0Y80000D02*
X45000Y80000D01*
X48050Y79867D01*
X51078Y79468D01*
X54059Y78807D01*
X56971Y77889D01*
X59792Y76721D01*
X62500Y75311D01*
X65075Y73670D01*
X67498Y71812D01*
X69749Y69749D01*
X71812Y67498D01*
X73670Y65075D01*
X75311Y62500D01*
X76721Y59792D01*
X77889Y56971D01*
X78807Y54059D01*
X79468Y51078D01*
X79867Y48050D01*
X80000Y45000D01*
X80000Y0D01*
X970000Y0D01*
X970000Y45000D01*
X970133Y48050D01*
X970532Y51078D01*
X971193Y54059D01*
X972111Y56971D01*
X973279Y59792D01*
X974689Y62500D01*
X976330Y65075D01*
X978188Y67498D01*
X980251Y69749D01*
X982502Y71812D01*
X984925Y73670D01*
X987500Y75311D01*
X990208Y76721D01*
X993029Y77889D01*
X995941Y78807D01*
X998922Y79468D01*
X1001950Y79867D01*
X1005000Y80000D01*
X1050000Y80000D01*
X1050000Y560000D01*
X1049962Y560872D01*
X1049848Y561736D01*
X1049659Y562588D01*
X1049397Y563420D01*
X1049063Y564226D01*
X1048660Y565000D01*
X1048192Y565736D01*
X1047660Y566428D01*
X1047071Y567071D01*
X1046428Y567660D01*
X1045736Y568192D01*
X1045000Y568660D01*
X1044226Y569063D01*
X1043420Y569397D01*
X1042588Y569659D01*
X1041736Y569848D01*
X1040872Y569962D01*
X1040000Y570000D01*
X960000Y570000D01*
X959128Y570038D01*
X958264Y570152D01*
X957412Y570341D01*
X956580Y570603D01*
X955774Y570937D01*
X955000Y571340D01*
X954264Y571808D01*
X953572Y572340D01*
X952929Y572929D01*
X952340Y573572D01*
X951808Y574264D01*
X951340Y575000D01*
X950937Y575774D01*
X950603Y576580D01*
X950341Y577412D01*
X950152Y578264D01*
X950038Y579128D01*
X950000Y580000D01*
X950038Y580872D01*
X950152Y581736D01*
X950341Y582588D01*
X950603Y583420D01*
X950937Y584226D01*
X951340Y585000D01*
X951808Y585736D01*
X952340Y586428D01*
X952929Y587071D01*
X953572Y587660D01*
X954264Y588192D01*
X955000Y588660D01*
X955774Y589063D01*
X956580Y589397D01*
X957412Y589659D01*
X958264Y589848D01*
X959128Y589962D01*
X960000Y590000D01*
X1040000Y590000D01*
X1040872Y590038D01*
X1041736Y590152D01*
X1042588Y590341D01*
X1043420Y590603D01*
X1044226Y590937D01*
X1045000Y591340D01*
X1045736Y591808D01*
X1046428Y592340D01*
X1047071Y592929D01*
X1047660Y593572D01*
X1048192Y594264D01*
X1048660Y595000D01*
X1049063Y595774D01*
X1049397Y596580D01*
X1049659Y597412D01*
X1049848Y598264D01*
X1049962Y599128D01*
X1050000Y600000D01*
X1050000Y690000D01*
X1005000Y690000D01*
X1001950Y690133D01*
X998922Y690532D01*
X995941Y691193D01*
X993029Y692111D01*
X990208Y693279D01*
X987500Y694689D01*
X984925Y696330D01*
X982502Y698188D01*
X980251Y700251D01*
X978188Y702502D01*
X976330Y704925D01*
X974689Y707500D01*
X973279Y710208D01*
X972111Y713029D01*
X971193Y715941D01*
X970532Y718922D01*
X970133Y721950D01*
X970000Y725000D01*
X970000Y770000D01*
X635000Y770000D01*
X634564Y769981D01*
X634132Y769924D01*
X633706Y769830D01*
X633290Y769698D01*
X632887Y769532D01*
X632500Y769330D01*
X632132Y769096D01*
X631786Y768830D01*
X631464Y768536D01*
X631170Y768214D01*
X630904Y767868D01*
X630670Y767500D01*
X630468Y767113D01*
X630302Y766710D01*
X630170Y766294D01*
X630076Y765868D01*
X630019Y765436D01*
X630000Y765000D01*
X630000Y746000D01*
X630019Y745564D01*
X630076Y745132D01*
X630170Y744706D01*
X630302Y744290D01*
X630468Y743887D01*
X630670Y743500D01*
X630904Y743132D01*
X631170Y742786D01*
X631464Y742464D01*
X631786Y742170D01*
X632132Y741904D01*
X632500Y741670D01*
X632887Y741468D01*
X633290Y741302D01*
X633706Y741170D01*
X634132Y741076D01*
X634564Y741019D01*
X635000Y741000D01*
X647000Y741000D01*
X649599Y738533D01*
X651974Y735850D01*
X654105Y732969D01*
X655977Y729914D01*
X657576Y726707D01*
X658890Y723373D01*
X659907Y719937D01*
X660622Y716426D01*
X661027Y712865D01*
X661121Y709283D01*
X660903Y705706D01*
X660373Y702162D01*
X659536Y698678D01*
X658399Y695280D01*
X656970Y691994D01*
X655261Y688845D01*
X653283Y685856D01*
X651052Y683052D01*
X648585Y680453D01*
X647000Y679000D01*
X593000Y679000D01*
X590401Y681467D01*
X588026Y684150D01*
X585895Y687031D01*
X584023Y690086D01*
X582424Y693293D01*
X581110Y696627D01*
X580093Y700063D01*
X579378Y703574D01*
X578973Y707135D01*
X578879Y710717D01*
X579098Y714294D01*
X579627Y717838D01*
X580464Y721322D01*
X581601Y724720D01*
X583030Y728006D01*
X584739Y731155D01*
X586717Y734144D01*
X588948Y736948D01*
X591415Y739547D01*
X593000Y741000D01*
X605000Y741000D01*
X605436Y741019D01*
X605868Y741076D01*
X606294Y741170D01*
X606710Y741302D01*
X607113Y741468D01*
X607500Y741670D01*
X607868Y741904D01*
X608214Y742170D01*
X608536Y742464D01*
X608830Y742786D01*
X609096Y743132D01*
X609330Y743500D01*
X609532Y743887D01*
X609698Y744290D01*
X609830Y744706D01*
X609924Y745132D01*
X609981Y745564D01*
X610000Y746000D01*
X610000Y765000D01*
X609981Y765436D01*
X609924Y765868D01*
X609830Y766294D01*
X609698Y766710D01*
X609532Y767113D01*
X609330Y767500D01*
X609096Y767868D01*
X608830Y768214D01*
X608536Y768536D01*
X608214Y768830D01*
X607868Y769096D01*
X607500Y769330D01*
X607113Y769532D01*
X606710Y769698D01*
X606294Y769830D01*
X605868Y769924D01*
X605436Y769981D01*
X605000Y770000D01*
X445000Y770000D01*
X444564Y769981D01*
X444132Y769924D01*
X443706Y769830D01*
X443290Y769698D01*
X442887Y769532D01*
X442500Y769330D01*
X442132Y769096D01*
X441786Y768830D01*
X441464Y768536D01*
X441170Y768214D01*
X440904Y767868D01*
X440670Y767500D01*
X440468Y767113D01*
X440302Y766710D01*
X440170Y766294D01*
X440076Y765868D01*
X440019Y765436D01*
X440000Y765000D01*
X440000Y746000D01*
X440019Y745564D01*
X440076Y745132D01*
X440170Y744706D01*
X440302Y744290D01*
X440468Y743887D01*
X440670Y743500D01*
X440904Y743132D01*
X441170Y742786D01*
X441464Y742464D01*
X441786Y742170D01*
X442132Y741904D01*
X442500Y741670D01*
X442887Y741468D01*
X443290Y741302D01*
X443706Y741170D01*
X444132Y741076D01*
X444564Y741019D01*
X445000Y741000D01*
X457000Y741000D01*
X459599Y738533D01*
X461974Y735850D01*
X464105Y732969D01*
X465977Y729914D01*
X467576Y726707D01*
X468890Y723373D01*
X469907Y719937D01*
X470622Y716426D01*
X471027Y712865D01*
X471121Y709283D01*
X470903Y705706D01*
X470373Y702162D01*
X469536Y698678D01*
X468399Y695280D01*
X466970Y691994D01*
X465261Y688845D01*
X463283Y685856D01*
X461052Y683052D01*
X458585Y680453D01*
X457000Y679000D01*
X403000Y679000D01*
X400401Y681467D01*
X398026Y684150D01*
X395895Y687031D01*
X394023Y690086D01*
X392424Y693293D01*
X391110Y696627D01*
X390093Y700063D01*
X389378Y703574D01*
X388973Y707135D01*
X388879Y710717D01*
X389098Y714294D01*
X389627Y717838D01*
X390464Y721322D01*
X391601Y724720D01*
X393030Y728006D01*
X394739Y731155D01*
X396717Y734144D01*
X398948Y736948D01*
X401415Y739547D01*
X403000Y741000D01*
X415000Y741000D01*
X415436Y741019D01*
X415868Y741076D01*
X416294Y741170D01*
X416710Y741302D01*
X417113Y741468D01*
X417500Y741670D01*
X417868Y741904D01*
X418214Y742170D01*
X418536Y742464D01*
X418830Y742786D01*
X419096Y743132D01*
X419330Y743500D01*
X419532Y743887D01*
X419698Y744290D01*
X419830Y744706D01*
X419924Y745132D01*
X419981Y745564D01*
X420000Y746000D01*
X420000Y765000D01*
X419981Y765436D01*
X419924Y765868D01*
X419830Y766294D01*
X419698Y766710D01*
X419532Y767113D01*
X419330Y767500D01*
X419096Y767868D01*
X418830Y768214D01*
X418536Y768536D01*
X418214Y768830D01*
X417868Y769096D01*
X417500Y769330D01*
X417113Y769532D01*
X416710Y769698D01*
X416294Y769830D01*
X415868Y769924D01*
X415436Y769981D01*
X415000Y770000D01*
X80000Y770000D01*
X80000Y725000D01*
X79867Y721950D01*
X79468Y718922D01*
X78807Y715941D01*
X77889Y713029D01*
X76721Y710208D01*
X75311Y707500D01*
X73670Y704925D01*
X71812Y702502D01*
X69749Y700251D01*
X67498Y698188D01*
X65075Y696330D01*
X62500Y694689D01*
X59792Y693279D01*
X56971Y692111D01*
X54059Y691193D01*
X51078Y690532D01*
X48050Y690133D01*
X45000Y690000D01*
X0Y690000D01*
X0Y80000D01*
X174000Y668946D02*
X173921Y667842D01*
X173763Y666746D01*
X173528Y665664D01*
X173216Y664602D01*
X172829Y663565D01*
X172369Y662558D01*
X171839Y661586D01*
X171240Y660654D01*
X170577Y659768D01*
X169852Y658931D01*
X169069Y658148D01*
X168232Y657423D01*
X167346Y656760D01*
X166414Y656161D01*
X165443Y655631D01*
X164435Y655171D01*
X163398Y654784D01*
X162336Y654472D01*
X161254Y654237D01*
X160158Y654079D01*
X159054Y654000D01*
X157946Y654000D01*
X156842Y654079D01*
X155746Y654237D01*
X154664Y654472D01*
X153602Y654784D01*
X152565Y655171D01*
X151558Y655631D01*
X150586Y656161D01*
X149654Y656760D01*
X148768Y657423D01*
X147931Y658148D01*
X147148Y658931D01*
X146423Y659768D01*
X145760Y660654D01*
X145161Y661586D01*
X144631Y662558D01*
X144171Y663565D01*
X143784Y664602D01*
X143472Y665664D01*
X143237Y666746D01*
X143079Y667842D01*
X143000Y668946D01*
X143000Y670054D01*
X143079Y671158D01*
X143237Y672254D01*
X143472Y673336D01*
X143784Y674398D01*
X144171Y675435D01*
X144631Y676443D01*
X145161Y677414D01*
X145760Y678346D01*
X146423Y679232D01*
X147148Y680069D01*
X147931Y680852D01*
X148768Y681577D01*
X149654Y682240D01*
X150586Y682839D01*
X151558Y683369D01*
X152565Y683829D01*
X153602Y684216D01*
X154664Y684528D01*
X155746Y684763D01*
X156842Y684921D01*
X157946Y685000D01*
X159054Y685000D01*
X160158Y684921D01*
X161254Y684763D01*
X162336Y684528D01*
X163398Y684216D01*
X164435Y683829D01*
X165443Y683369D01*
X166414Y682839D01*
X167346Y682240D01*
X168232Y681577D01*
X169069Y680852D01*
X169852Y680069D01*
X170577Y679232D01*
X171240Y678346D01*
X171839Y677414D01*
X172369Y676443D01*
X172829Y675435D01*
X173216Y674398D01*
X173528Y673336D01*
X173763Y672254D01*
X173921Y671158D01*
X174000Y670054D01*
X174000Y668946D01*
X907000Y668946D02*
X906921Y667842D01*
X906763Y666746D01*
X906528Y665664D01*
X906216Y664602D01*
X905829Y663565D01*
X905369Y662558D01*
X904839Y661586D01*
X904240Y660654D01*
X903577Y659768D01*
X902852Y658931D01*
X902069Y658148D01*
X901232Y657423D01*
X900346Y656760D01*
X899414Y656161D01*
X898443Y655631D01*
X897435Y655171D01*
X896398Y654784D01*
X895336Y654472D01*
X894254Y654237D01*
X893158Y654079D01*
X892054Y654000D01*
X890946Y654000D01*
X889842Y654079D01*
X888746Y654237D01*
X887664Y654472D01*
X886602Y654784D01*
X885565Y655171D01*
X884558Y655631D01*
X883586Y656161D01*
X882654Y656760D01*
X881768Y657423D01*
X880931Y658148D01*
X880148Y658931D01*
X879423Y659768D01*
X878760Y660654D01*
X878161Y661586D01*
X877631Y662558D01*
X877171Y663565D01*
X876784Y664602D01*
X876472Y665664D01*
X876237Y666746D01*
X876079Y667842D01*
X876000Y668946D01*
X876000Y670054D01*
X876079Y671158D01*
X876237Y672254D01*
X876472Y673336D01*
X876784Y674398D01*
X877171Y675435D01*
X877631Y676443D01*
X878161Y677414D01*
X878760Y678346D01*
X879423Y679232D01*
X880148Y680069D01*
X880931Y680852D01*
X881768Y681577D01*
X882654Y682240D01*
X883586Y682839D01*
X884558Y683369D01*
X885565Y683829D01*
X886602Y684216D01*
X887664Y684528D01*
X888746Y684763D01*
X889842Y684921D01*
X890946Y685000D01*
X892054Y685000D01*
X893158Y684921D01*
X894254Y684763D01*
X895336Y684528D01*
X896398Y684216D01*
X897435Y683829D01*
X898443Y683369D01*
X899414Y682839D01*
X900346Y682240D01*
X901232Y681577D01*
X902069Y680852D01*
X902852Y680069D01*
X903577Y679232D01*
X904240Y678346D01*
X904839Y677414D01*
X905369Y676443D01*
X905829Y675435D01*
X906216Y674398D01*
X906528Y673336D01*
X906763Y672254D01*
X906921Y671158D01*
X907000Y670054D01*
X907000Y668946D01*
X907000Y99946D02*
X906921Y98842D01*
X906763Y97746D01*
X906528Y96664D01*
X906216Y95602D01*
X905829Y94565D01*
X905369Y93558D01*
X904839Y92586D01*
X904240Y91654D01*
X903577Y90768D01*
X902852Y89931D01*
X902069Y89148D01*
X901232Y88423D01*
X900346Y87760D01*
X899414Y87161D01*
X898443Y86631D01*
X897435Y86171D01*
X896398Y85784D01*
X895336Y85472D01*
X894254Y85237D01*
X893158Y85079D01*
X892054Y85000D01*
X890946Y85000D01*
X889842Y85079D01*
X888746Y85237D01*
X887664Y85472D01*
X886602Y85784D01*
X885565Y86171D01*
X884558Y86631D01*
X883586Y87161D01*
X882654Y87760D01*
X881768Y88423D01*
X880931Y89148D01*
X880148Y89931D01*
X879423Y90768D01*
X878760Y91654D01*
X878161Y92586D01*
X877631Y93558D01*
X877171Y94565D01*
X876784Y95602D01*
X876472Y96664D01*
X876237Y97746D01*
X876079Y98842D01*
X876000Y99946D01*
X876000Y101054D01*
X876079Y102158D01*
X876237Y103254D01*
X876472Y104336D01*
X876784Y105398D01*
X877171Y106435D01*
X877631Y107443D01*
X878161Y108414D01*
X878760Y109346D01*
X879423Y110232D01*
X880148Y111069D01*
X880931Y111852D01*
X881768Y112577D01*
X882654Y113240D01*
X883586Y113839D01*
X884558Y114369D01*
X885565Y114829D01*
X886602Y115216D01*
X887664Y115528D01*
X888746Y115763D01*
X889842Y115921D01*
X890946Y116000D01*
X892054Y116000D01*
X893158Y115921D01*
X894254Y115763D01*
X895336Y115528D01*
X896398Y115216D01*
X897435Y114829D01*
X898443Y114369D01*
X899414Y113839D01*
X900346Y113240D01*
X901232Y112577D01*
X902069Y111852D01*
X902852Y111069D01*
X903577Y110232D01*
X904240Y109346D01*
X904839Y108414D01*
X905369Y107443D01*
X905829Y106435D01*
X906216Y105398D01*
X906528Y104336D01*
X906763Y103254D01*
X906921Y102158D01*
X907000Y101054D01*
X907000Y99946D01*
X174000Y99946D02*
X173921Y98842D01*
X173763Y97746D01*
X173528Y96664D01*
X173216Y95602D01*
X172829Y94565D01*
X172369Y93558D01*
X171839Y92586D01*
X171240Y91654D01*
X170577Y90768D01*
X169852Y89931D01*
X169069Y89148D01*
X168232Y88423D01*
X167346Y87760D01*
X166414Y87161D01*
X165443Y86631D01*
X164435Y86171D01*
X163398Y85784D01*
X162336Y85472D01*
X161254Y85237D01*
X160158Y85079D01*
X159054Y85000D01*
X157946Y85000D01*
X156842Y85079D01*
X155746Y85237D01*
X154664Y85472D01*
X153602Y85784D01*
X152565Y86171D01*
X151558Y86631D01*
X150586Y87161D01*
X149654Y87760D01*
X148768Y88423D01*
X147931Y89148D01*
X147148Y89931D01*
X146423Y90768D01*
X145760Y91654D01*
X145161Y92586D01*
X144631Y93558D01*
X144171Y94565D01*
X143784Y95602D01*
X143472Y96664D01*
X143237Y97746D01*
X143079Y98842D01*
X143000Y99946D01*
X143000Y101054D01*
X143079Y102158D01*
X143237Y103254D01*
X143472Y104336D01*
X143784Y105398D01*
X144171Y106435D01*
X144631Y107443D01*
X145161Y108414D01*
X145760Y109346D01*
X146423Y110232D01*
X147148Y111069D01*
X147931Y111852D01*
X148768Y112577D01*
X149654Y113240D01*
X150586Y113839D01*
X151558Y114369D01*
X152565Y114829D01*
X153602Y115216D01*
X154664Y115528D01*
X155746Y115763D01*
X156842Y115921D01*
X157946Y116000D01*
X159054Y116000D01*
X160158Y115921D01*
X161254Y115763D01*
X162336Y115528D01*
X163398Y115216D01*
X164435Y114829D01*
X165443Y114369D01*
X166414Y113839D01*
X167346Y113240D01*
X168232Y112577D01*
X169069Y111852D01*
X169852Y111069D01*
X170577Y110232D01*
X171240Y109346D01*
X171839Y108414D01*
X172369Y107443D01*
X172829Y106435D01*
X173216Y105398D01*
X173528Y104336D01*
X173763Y103254D01*
X173921Y102158D01*
X174000Y101054D01*
X174000Y99946D01*
M02*
